<?xml version="1.0" encoding="UTF-8" standalone="no"?>
<!-- Created with Inkscape (http://www.inkscape.org/) -->

<svg
   width="205.3768mm"
   height="32.808334mm"
   viewBox="0 0 205.37679 32.808334"
   version="1.1"
   id="svg8"
   sodipodi:docname="logo-verbose.svg"
   inkscape:export-filename="/home/birdofprey/Documents/dr.pogodin.studio/brand/logo.png"
   inkscape:export-xdpi="163.28"
   inkscape:export-ydpi="163.28"
   inkscape:version="1.1 (1:1.1+202105261517+ce6663b3b7)"
   xmlns:inkscape="http://www.inkscape.org/namespaces/inkscape"
   xmlns:sodipodi="http://sodipodi.sourceforge.net/DTD/sodipodi-0.dtd"
   xmlns="http://www.w3.org/2000/svg"
   xmlns:svg="http://www.w3.org/2000/svg"
   xmlns:rdf="http://www.w3.org/1999/02/22-rdf-syntax-ns#"
   xmlns:cc="http://creativecommons.org/ns#"
   xmlns:dc="http://purl.org/dc/elements/1.1/">
  <defs
     id="defs2" />
  <sodipodi:namedview
     id="base"
     pagecolor="#ffffff"
     bordercolor="#666666"
     borderopacity="1.0"
     inkscape:pageopacity="0.0"
     inkscape:pageshadow="2"
     inkscape:zoom="0.70710682"
     inkscape:cx="348.60362"
     inkscape:cy="447.59857"
     inkscape:document-units="mm"
     inkscape:current-layer="text1135"
     showgrid="false"
     inkscape:window-width="1848"
     inkscape:window-height="1016"
     inkscape:window-x="2632"
     inkscape:window-y="387"
     inkscape:window-maximized="1"
     fit-margin-top="0"
     fit-margin-left="0"
     fit-margin-right="0"
     fit-margin-bottom="0"
     inkscape:snap-bbox="true"
     inkscape:bbox-paths="true"
     inkscape:snap-bbox-edge-midpoints="true"
     inkscape:bbox-nodes="true"
     inkscape:snap-bbox-midpoints="true"
     inkscape:object-paths="true"
     inkscape:snap-intersection-paths="true"
     inkscape:snap-midpoints="true"
     inkscape:snap-others="false"
     inkscape:snap-smooth-nodes="true"
     inkscape:snap-grids="true"
     inkscape:snap-page="true"
     inkscape:pagecheckerboard="0" />
  <metadata
     id="metadata5">
    <rdf:RDF>
      <cc:Work
         rdf:about="">
        <dc:format>image/svg+xml</dc:format>
        <dc:type
           rdf:resource="http://purl.org/dc/dcmitype/StillImage" />
      </cc:Work>
    </rdf:RDF>
  </metadata>
  <g
     inkscape:label="Layer 1"
     inkscape:groupmode="layer"
     id="layer1"
     transform="translate(-90.581657,-87.626259)">
    <g
       id="g14554"
       transform="matrix(0.80316755,0,0,0.80316755,17.829409,17.247691)"
       style="stroke-width:1.24507">
      <path
         style="color:#000000;-inkscape-font-specification:Oswald;fill:#105244;stroke-width:0.65885;stroke-linecap:round;-inkscape-stroke:none"
         d="M 90.581657,87.626259 H 346.2902 V 128.47494 H 90.581657 Z"
         id="rect1266" />
      <g
         aria-label="Dr. Pogodin Studio"
         id="text1135"
         style="font-size:35.3986px;font-family:Oswald;-inkscape-font-specification:Oswald;letter-spacing:0px;word-spacing:0px;fill:#ffffff;stroke-width:0.329424">
        <path
           style="color:#000000;-inkscape-font-specification:Oswald;-inkscape-stroke:none"
           d="m 102.16957,93.465721 h 6.23016 q 4.63721,0 6.54874,2.123916 1.94692,2.123916 1.94692,6.619543 v 10.54878 q 0,4.74341 -1.91152,7.07972 -1.87613,2.30091 -6.26556,2.30091 h -6.54874 z m 6.26556,25.805579 q 2.08851,0 3.00888,-0.81417 0.95576,-0.81416 1.16815,-2.19471 0.24779,-1.41594 0.24779,-4.24783 v -9.30983 q 0,-2.44251 -0.31859,-3.716857 -0.28319,-1.309749 -1.23895,-1.911525 -0.95576,-0.637175 -2.97348,-0.637175 h -2.15932 V 119.2713 Z"
           id="path952" />
        <path
           style="color:#000000;-inkscape-font-specification:Oswald;-inkscape-stroke:none"
           d="m 120.61219,101.6782 h 3.78765 v 2.90268 q 1.06196,-1.73453 2.15932,-2.4425 1.13275,-0.70797 2.3717,-0.70797 0.31859,0 0.60178,0.0354 v 4.17704 q -1.13276,-0.42478 -2.08852,-0.42478 -0.92036,0 -1.66373,0.46018 -0.70797,0.42478 -1.38055,1.52214 v 14.93821 h -3.78765 z"
           id="path954" />
        <path
           style="color:#000000;-inkscape-font-specification:Oswald;-inkscape-stroke:none"
           d="m 131.69192,117.92615 h 3.78765 v 4.21244 h -3.78765 z"
           id="path956" />
        <path
           style="color:#000000;-inkscape-font-specification:Oswald;-inkscape-stroke:none"
           d="m 146.94865,93.465721 h 7.11512 q 3.71685,0 5.38058,2.01772 1.69914,2.01772 1.69914,5.911569 0,3.50446 -1.80533,5.45138 -1.80533,1.94693 -5.23899,1.94693 h -3.15048 v 13.34527 h -4.00004 z m 5.84077,12.460309 q 1.76993,0 2.72569,-0.38939 0.99116,-0.38938 1.41594,-1.34514 0.42479,-0.95577 0.42479,-2.76109 0,-2.194717 -0.31859,-3.221277 -0.31859,-1.026559 -1.27435,-1.451342 -0.92036,-0.424784 -2.93808,-0.424784 h -1.87613 v 9.593023 z"
           id="path958" />
        <path
           style="color:#000000;-inkscape-font-specification:Oswald;-inkscape-stroke:none"
           d="m 169.03734,122.42178 q -3.25667,0 -4.63722,-1.91153 -1.34515,-1.94692 -1.34515,-5.62838 v -5.94696 q 0,-3.68145 1.34515,-5.59298 1.38055,-1.94692 4.63722,-1.94692 3.22127,0 4.56642,1.94692 1.38054,1.91153 1.38054,5.59298 v 5.94696 q 0,3.68146 -1.38054,5.62838 -1.34515,1.91153 -4.56642,1.91153 z m 0,-2.79649 q 1.02656,0 1.48674,-0.60178 0.46018,-0.60178 0.56638,-1.48674 0.10619,-0.88497 0.10619,-2.40711 v -6.40714 q 0,-1.52214 -0.10619,-2.40711 -0.1062,-0.92036 -0.56638,-1.52214 -0.46018,-0.60177 -1.48674,-0.60177 -1.02656,0 -1.52214,0.60177 -0.46018,0.60178 -0.56638,1.52214 -0.10619,0.88497 -0.10619,2.40711 v 6.40714 q 0,1.52214 0.10619,2.40711 0.1062,0.88496 0.56638,1.48674 0.49558,0.60178 1.52214,0.60178 z"
           id="path960" />
        <path
           style="color:#000000;-inkscape-font-specification:Oswald;-inkscape-stroke:none"
           d="m 183.76313,128.47494 q -2.97348,0 -4.74341,-0.95576 -1.76993,-0.92037 -1.76993,-2.90269 0,-1.34515 0.81417,-2.33631 0.84956,-0.99116 2.12391,-1.59293 -0.95576,-0.28319 -1.48674,-0.88497 -0.49558,-0.60178 -0.49558,-1.30975 0,-1.06196 0.53098,-1.84073 0.53098,-0.77876 1.73453,-1.87612 -1.20355,-0.92036 -1.80533,-2.30091 -0.56637,-1.41594 -0.56637,-3.78765 0,-3.57526 1.45134,-5.41599 1.48674,-1.87612 4.31863,-1.87612 1.62833,0 2.65489,0.56638 1.02656,0.56637 1.55754,1.69913 0.24779,-0.38939 1.02656,-1.02656 0.81417,-0.67257 1.73453,-1.09736 l 0.56638,-0.24779 0.95576,2.44251 q -0.70797,0.14159 -1.98232,0.60177 -1.23895,0.46018 -1.48674,0.70797 0.24779,0.63718 0.42478,1.76993 0.21239,1.13276 0.21239,1.98233 0,3.36286 -1.30974,5.23899 -1.30975,1.84073 -4.35403,1.84073 -0.95577,0 -1.94693,-0.24779 -0.67257,0.99116 -0.67257,1.55753 0,0.38939 0.38939,0.63718 0.42478,0.21239 1.30974,0.28319 l 3.18588,0.28319 q 2.4071,0.21239 3.57526,1.45134 1.16815,1.23895 1.16815,3.53986 0,5.0974 -7.11512,5.0974 z m 0.1062,-15.2568 q 1.52214,0 1.98232,-1.06196 0.46018,-1.06196 0.46018,-3.46906 0,-2.4425 -0.46018,-3.53986 -0.46018,-1.13276 -1.94692,-1.13276 -1.48675,0 -2.01772,1.13276 -0.49558,1.09736 -0.49558,3.53986 0,2.19471 0.49558,3.36287 0.53097,1.16815 1.98232,1.16815 z m 0.17699,12.28332 q 2.01772,0 2.97348,-0.49559 0.95577,-0.46018 0.95577,-1.52214 0,-0.99116 -0.60178,-1.45134 -0.60178,-0.49558 -2.19471,-0.63717 l -3.22128,-0.28319 q -0.74337,0.74337 -1.13275,1.30975 -0.38939,0.56637 -0.38939,1.23895 0,0.95576 0.77877,1.38054 0.81417,0.46019 2.83189,0.46019 z"
           id="path962" />
        <path
           style="color:#000000;-inkscape-font-specification:Oswald;-inkscape-stroke:none"
           d="m 199.33844,122.42178 q -3.25667,0 -4.63722,-1.91153 -1.34514,-1.94692 -1.34514,-5.62838 v -5.94696 q 0,-3.68145 1.34514,-5.59298 1.38055,-1.94692 4.63722,-1.94692 3.22127,0 4.56642,1.94692 1.38055,1.91153 1.38055,5.59298 v 5.94696 q 0,3.68146 -1.38055,5.62838 -1.34515,1.91153 -4.56642,1.91153 z m 0,-2.79649 q 1.02656,0 1.48674,-0.60178 0.46018,-0.60178 0.56638,-1.48674 0.1062,-0.88497 0.1062,-2.40711 v -6.40714 q 0,-1.52214 -0.1062,-2.40711 -0.1062,-0.92036 -0.56638,-1.52214 -0.46018,-0.60177 -1.48674,-0.60177 -1.02656,0 -1.52214,0.60177 -0.46018,0.60178 -0.56638,1.52214 -0.10619,0.88497 -0.10619,2.40711 v 6.40714 q 0,1.52214 0.10619,2.40711 0.1062,0.88496 0.56638,1.48674 0.49558,0.60178 1.52214,0.60178 z"
           id="path964" />
        <path
           style="color:#000000;-inkscape-font-specification:Oswald;-inkscape-stroke:none"
           d="m 213.49786,122.42178 q -2.6549,0 -3.89385,-1.91153 -1.23895,-1.94692 -1.23895,-6.40714 v -3.96465 q 0,-4.07084 1.06196,-6.40714 1.09735,-2.33631 3.96464,-2.33631 1.80533,0 3.39827,1.59293 v -9.522219 h 3.78765 v 28.672869 h -3.78765 v -1.30975 q -1.48675,1.59294 -3.29207,1.59294 z m 0.95576,-2.97349 q 1.13275,0 2.33631,-0.77876 v -13.41607 q -1.30975,-0.88497 -2.40711,-0.88497 -2.23011,0 -2.23011,4.28323 v 5.76997 q 0,2.4779 0.46018,3.75225 0.46018,1.27435 1.84073,1.27435 z"
           id="path966" />
        <path
           style="color:#000000;-inkscape-font-specification:Oswald;-inkscape-stroke:none"
           d="m 224.64839,94.669273 h 3.78765 v 3.964644 h -3.78765 z m 0,7.008927 h 3.78765 v 20.46039 h -3.78765 z"
           id="path968" />
        <path
           style="color:#000000;-inkscape-font-specification:Oswald;-inkscape-stroke:none"
           d="m 232.50682,101.6782 h 3.78765 v 2.01772 q 2.44251,-2.30091 4.99121,-2.30091 1.66373,0 2.3717,1.20355 0.70797,1.20355 0.70797,2.97348 v 16.56655 H 240.5777 V 106.6694 q 0,-1.16815 -0.35398,-1.73453 -0.35399,-0.56638 -1.27435,-0.56638 -1.13276,0 -2.6549,1.27435 v 16.49575 h -3.78765 z"
           id="path970" />
        <path
           style="color:#000000;-inkscape-font-specification:Oswald;-inkscape-stroke:none"
           d="m 263.23271,122.45718 q -3.61066,0 -5.52218,-2.23012 -1.87613,-2.23011 -2.08852,-6.12395 l 3.53986,-0.95577 q 0.17699,2.76109 1.06196,4.46023 0.92036,1.69913 3.00888,1.69913 1.55754,0 2.33631,-0.84957 0.81416,-0.88496 0.81416,-2.5133 0,-1.76993 -0.74337,-2.93808 -0.74337,-1.16816 -2.3717,-2.5841 l -4.81421,-4.24783 q -1.45135,-1.27435 -2.12392,-2.72569 -0.63717,-1.48674 -0.63717,-3.610661 0,-3.150476 1.80532,-4.885007 1.80533,-1.734531 4.92041,-1.734531 3.39827,0 5.1328,1.805328 1.73453,1.805329 2.08851,5.592981 l -3.39826,0.92036 q -0.17699,-2.513299 -0.99116,-3.858446 -0.77877,-1.380545 -2.83189,-1.380545 -1.52214,0 -2.33631,0.814168 -0.81417,0.778769 -0.81417,2.336307 0,1.274346 0.42479,2.159316 0.42478,0.84957 1.45134,1.73453 l 4.84961,4.24783 q 1.87612,1.66374 2.97348,3.61066 1.13276,1.94692 1.13276,4.42483 0,3.15047 -1.91153,4.9912 -1.91152,1.84073 -4.9558,1.84073 z"
           id="path972" />
        <path
           style="color:#000000;-inkscape-font-specification:Oswald;-inkscape-stroke:none"
           d="m 278.3479,122.42178 q -4.42482,0 -4.42482,-4.88501 V 104.1915 h -2.15932 v -2.5133 h 2.15932 v -5.982367 h 3.78765 v 5.982367 h 3.29207 v 2.5133 h -3.29207 v 13.09748 q 0,1.23895 0.38938,1.73453 0.38939,0.49558 1.48674,0.49558 0.70798,0 1.38055,-0.10619 v 2.79649 q -1.41595,0.21239 -2.6195,0.21239 z"
           id="path974" />
        <path
           style="color:#000000;-inkscape-font-specification:Oswald;-inkscape-stroke:none"
           d="m 286.73731,122.42178 q -1.66373,0 -2.3717,-1.20356 -0.70798,-1.20355 -0.70798,-2.97348 V 101.6782 h 3.78765 v 15.43379 q 0,1.16815 0.35399,1.76993 0.35399,0.56637 1.27435,0.56637 1.13275,0 2.65489,-1.27435 V 101.6782 h 3.78765 v 20.46039 h -3.78765 v -2.01772 q -2.4425,2.30091 -4.9912,2.30091 z"
           id="path976" />
        <path
           style="color:#000000;-inkscape-font-specification:Oswald;-inkscape-stroke:none"
           d="m 304.11799,122.42178 q -2.6549,0 -3.89385,-1.91153 -1.23895,-1.94692 -1.23895,-6.40714 v -3.96465 q 0,-4.07084 1.06196,-6.40714 1.09736,-2.33631 3.96464,-2.33631 1.80533,0 3.39827,1.59293 v -9.522219 h 3.78765 v 28.672869 h -3.78765 v -1.30975 q -1.48674,1.59294 -3.29207,1.59294 z m 0.95576,-2.97349 q 1.13276,0 2.33631,-0.77876 v -13.41607 q -1.30975,-0.88497 -2.40711,-0.88497 -2.23011,0 -2.23011,4.28323 v 5.76997 q 0,2.4779 0.46018,3.75225 0.46018,1.27435 1.84073,1.27435 z"
           id="path978" />
        <path
           style="color:#000000;-inkscape-font-specification:Oswald;-inkscape-stroke:none"
           d="m 315.26851,94.669273 h 3.78765 v 3.964644 h -3.78765 z m 0,7.008927 h 3.78765 v 20.46039 h -3.78765 z"
           id="path980" />
        <path
           style="color:#000000;-inkscape-font-specification:Oswald;-inkscape-stroke:none"
           d="m 328.75532,122.42178 q -3.25667,0 -4.63722,-1.91153 -1.34515,-1.94692 -1.34515,-5.62838 v -5.94696 q 0,-3.68145 1.34515,-5.59298 1.38055,-1.94692 4.63722,-1.94692 3.22127,0 4.56642,1.94692 1.38054,1.91153 1.38054,5.59298 v 5.94696 q 0,3.68146 -1.38054,5.62838 -1.34515,1.91153 -4.56642,1.91153 z m 0,-2.79649 q 1.02656,0 1.48674,-0.60178 0.46018,-0.60178 0.56638,-1.48674 0.10619,-0.88497 0.10619,-2.40711 v -6.40714 q 0,-1.52214 -0.10619,-2.40711 -0.1062,-0.92036 -0.56638,-1.52214 -0.46018,-0.60177 -1.48674,-0.60177 -1.02656,0 -1.52214,0.60177 -0.46018,0.60178 -0.56638,1.52214 -0.1062,0.88497 -0.1062,2.40711 v 6.40714 q 0,1.52214 0.1062,2.40711 0.1062,0.88496 0.56638,1.48674 0.49558,0.60178 1.52214,0.60178 z"
           id="path982" />
      </g>
    </g>
  </g>
</svg>
